<?xml version="1.0" encoding="UTF-8" standalone="no"?>
<!-- Created with Inkscape (http://www.inkscape.org/) -->

<svg
   width="512"
   height="512"
   viewBox="0 0 512 512"
   version="1.1"
   id="svg5"
   xml:space="preserve"
   inkscape:version="1.2.2 (b0a8486541, 2022-12-01)"
   sodipodi:docname="LOGO MOVIE.svg"
   xmlns:inkscape="http://www.inkscape.org/namespaces/inkscape"
   xmlns:sodipodi="http://sodipodi.sourceforge.net/DTD/sodipodi-0.dtd"
   xmlns:xlink="http://www.w3.org/1999/xlink"
   xmlns="http://www.w3.org/2000/svg"
   xmlns:svg="http://www.w3.org/2000/svg"><sodipodi:namedview
     id="namedview7"
     pagecolor="#ffffff"
     bordercolor="#111111"
     borderopacity="1"
     inkscape:showpageshadow="0"
     inkscape:pageopacity="0"
     inkscape:pagecheckerboard="1"
     inkscape:deskcolor="#d1d1d1"
     inkscape:document-units="px"
     showgrid="false"
     inkscape:zoom="4.3619947"
     inkscape:cx="408.9872"
     inkscape:cy="445.09454"
     inkscape:window-width="1920"
     inkscape:window-height="1003"
     inkscape:window-x="0"
     inkscape:window-y="0"
     inkscape:window-maximized="1"
     inkscape:current-layer="layer1" /><defs
     id="defs2" /><g
     inkscape:label="Livello 1"
     inkscape:groupmode="layer"
     id="layer1"><path
       id="path111"
       style="display:inline;fill:#000000;stroke-width:1.11964"
       d="M 229.79883,0 A 229.79877,229.79877 0 0 0 0,229.79883 229.79877,229.79877 0 0 0 229.79883,459.59766 229.79877,229.79877 0 0 0 459.59766,229.79883 229.79877,229.79877 0 0 0 229.79883,0 Z m 0,36.759766 A 193.03957,193.03957 0 0 1 422.83789,229.79883 193.03957,193.03957 0 0 1 229.79883,422.83789 193.03957,193.03957 0 0 1 36.759766,229.79883 193.03957,193.03957 0 0 1 229.79883,36.759766 Z" /><image
       width="512"
       height="512"
       preserveAspectRatio="none"
       style="display:none;image-rendering:optimizeSpeed"
       xlink:href="file:///media/data/Scaricati/favicon_waifu2x_art_noise1_scale.png"
       id="image282"
       x="0"
       y="0"
       sodipodi:insensitive="true" /><path
       id="path531"
       style="fill:#000000;image-rendering:auto"
       d="M 338.76172 162.40625 A 67.391975 67.391975 0 0 0 271.36914 229.79883 A 67.391975 67.391975 0 0 0 338.76172 297.19141 A 67.391975 67.391975 0 0 0 406.1543 229.79883 A 67.391975 67.391975 0 0 0 338.76172 162.40625 z M 338.76172 193.03906 A 36.759171 36.759171 0 0 1 375.52148 229.79883 A 36.759171 36.759171 0 0 1 338.76172 266.55859 A 36.759171 36.759171 0 0 1 302.00195 229.79883 A 36.759171 36.759171 0 0 1 338.76172 193.03906 z " /><path
       id="path531-5"
       style="fill:#000000;image-rendering:auto"
       d="m 297.19141,123.48538 a 67.391975,67.391975 0 0 0 -67.39258,-67.392585 67.391975,67.391975 0 0 0 -67.39258,67.392585 67.391975,67.391975 0 0 0 67.39258,67.39258 67.391975,67.391975 0 0 0 67.39258,-67.39258 z m -30.63281,0 a 36.759171,36.759171 0 0 1 -36.75977,36.75976 36.759171,36.759171 0 0 1 -36.75976,-36.75976 36.759171,36.759171 0 0 1 36.75976,-36.759775 36.759171,36.759171 0 0 1 36.75977,36.759775 z" /><path
       id="path531-5-3"
       style="fill:#000000;image-rendering:auto"
       d="m 190.88445,229.79883 a 67.391975,67.391975 0 0 0 -67.39258,-67.39258 67.391975,67.391975 0 0 0 -67.392584,67.39258 67.391975,67.391975 0 0 0 67.392584,67.39258 67.391975,67.391975 0 0 0 67.39258,-67.39258 z m -30.63281,0 a 36.759171,36.759171 0 0 1 -36.75977,36.75976 36.759171,36.759171 0 0 1 -36.759764,-36.75976 36.759171,36.759171 0 0 1 36.759764,-36.75977 36.759171,36.759171 0 0 1 36.75977,36.75977 z" /><path
       id="path531-5-3-5"
       style="fill:#000000;image-rendering:auto"
       d="m 297.19141,338.28104 a 67.391975,67.391975 0 0 0 -67.39258,-67.39258 67.391975,67.391975 0 0 0 -67.39258,67.39258 67.391975,67.391975 0 0 0 67.39258,67.39258 67.391975,67.391975 0 0 0 67.39258,-67.39258 z m -30.63281,0 a 36.759171,36.759171 0 0 1 -36.75977,36.75976 36.759171,36.759171 0 0 1 -36.75976,-36.75976 36.759171,36.759171 0 0 1 36.75976,-36.75977 36.759171,36.759171 0 0 1 36.75977,36.75977 z" /><circle
       style="fill:#000000"
       id="path859"
       cx="229.79883"
       cy="229.79883"
       r="22.830872" /><rect
       style="fill:#000000;stroke-width:0.963834"
       id="rect915"
       width="213.47791"
       height="29.178268"
       x="229.79883"
       y="430.4194" /><path
       id="path917-6"
       style="fill:#000000;stroke-width:1.49065"
       d="m 443.21693,430.4194 v 29.27207 a 38.616628,38.616625 0 0 1 38.61526,38.61525 38.616628,38.616625 0 0 1 0,0.002 h 29.27207 a 67.888675,67.88867 0 0 0 0,-0.002 67.888675,67.88867 0 0 0 -67.88733,-67.88732 z m -67.88925,67.88732 a 67.888675,67.88867 0 0 0 0,0.002 h 29.27207 a 38.616628,38.616625 0 0 1 0,-0.002 z m 64.38847,67.6392 a 67.888675,67.88867 0 0 0 3.50078,0.25005 67.888675,67.88867 0 0 0 5.60783,-0.25005 z" /></g></svg>
